<?xml version="1.0" standalone="no"?>
<!DOCTYPE svg PUBLIC "-//W3C//DTD SVG 20010904//EN"
 "http://www.w3.org/TR/2001/REC-SVG-20010904/DTD/svg10.dtd">
<svg version="1.0" xmlns="http://www.w3.org/2000/svg"
 width="512.000000pt" height="512.000000pt" viewBox="0 0 512.000000 512.000000"
 preserveAspectRatio="xMidYMid meet">
<metadata>
Created by potrace 1.11, written by Peter Selinger 2001-2013
</metadata>
<g transform="translate(0.000000,512.000000) scale(0.100000,-0.100000)"
fill="#000000" stroke="none">
<path d="M1631 5015 c-41 -8 -106 -29 -145 -48 -65 -32 -81 -35 -186 -40 -63
-3 -142 -13 -175 -22 -85 -23 -194 -78 -267 -133 -35 -26 -85 -56 -111 -66
-114 -43 -307 -222 -423 -392 -87 -127 -194 -347 -194 -400 0 -9 21 8 50 39
108 118 231 175 395 184 86 5 103 9 125 29 44 41 143 94 225 122 74 24 93 26
250 27 140 1 174 3 195 17 64 43 204 82 344 99 154 17 395 -30 505 -100 20
-13 59 -16 195 -16 161 0 176 -2 251 -28 89 -32 150 -64 210 -112 37 -30 47
-32 135 -37 163 -9 306 -77 410 -195 40 -46 42 -47 35 -18 -14 60 -66 182
-116 270 -136 240 -351 456 -513 517 -28 11 -62 30 -76 42 -116 106 -311 176
-491 176 -73 0 -89 4 -153 35 -122 61 -308 80 -475 50z"/>
<path d="M1599 3973 l-56 -4 -122 -251 c-67 -138 -120 -254 -119 -257 2 -4 31
-2 66 2 l63 9 124 249 c69 137 125 251 125 254 0 3 -6 4 -12 3 -7 -1 -38 -3
-69 -5z"/>
<path d="M1772 3958 c-5 -7 -30 -55 -56 -105 l-46 -93 0 -135 0 -135 55 0 54
0 3 143 3 142 50 -67 c28 -37 53 -67 57 -68 3 0 30 30 60 67 l53 67 3 -139 c2
-96 6 -142 15 -147 7 -4 31 -8 55 -8 l42 0 0 239 c0 267 5 251 -75 251 -42 0
-45 -2 -94 -70 -28 -38 -53 -70 -55 -70 -3 0 -27 32 -55 70 -28 39 -53 70 -55
70 -2 0 -8 -6 -14 -12z"/>
<path d="M1210 3924 c-41 -8 -108 -21 -149 -30 l-74 -16 7 -236 c4 -130 9
-238 11 -240 3 -3 148 23 186 34 14 4 59 83 59 103 0 7 -54 1 -117 -14 -21 -5
-23 -2 -23 40 0 52 -3 50 105 68 l80 13 3 38 c5 64 3 65 -80 50 -119 -21 -120
-21 -116 28 l3 42 75 13 c41 7 90 15 108 18 31 6 32 7 32 55 0 57 5 56 -110
34z"/>
<path d="M2292 3712 c-51 -121 -92 -225 -92 -230 0 -9 54 -22 92 -22 10 0 23
16 34 45 19 51 22 51 119 33 l63 -11 13 -46 c15 -59 20 -64 79 -77 57 -13 58
-12 36 57 -8 24 -44 137 -81 252 -52 163 -69 207 -83 207 -9 0 -33 3 -53 6
l-36 6 -91 -220z m176 -77 c-8 -7 -70 9 -74 19 -3 7 5 35 17 62 l22 49 19 -64
c11 -34 18 -64 16 -66z"/>
<path d="M2730 3854 c0 -3 29 -65 64 -138 l63 -133 -73 -94 c-40 -52 -73 -97
-74 -102 0 -9 36 -23 83 -32 33 -7 36 -5 77 54 24 34 44 60 46 58 2 -1 19 -41
39 -87 20 -47 42 -88 48 -92 21 -13 29 -9 22 12 -4 12 -10 62 -15 113 -4 51
-11 101 -15 113 -5 16 9 39 64 105 39 46 71 87 71 91 0 5 -101 48 -114 48 -1
0 -20 -25 -42 -55 -21 -30 -41 -55 -44 -55 -3 0 -21 37 -40 82 l-35 81 -62 18
c-35 10 -63 15 -63 13z"/>
<path d="M598 3762 l-98 -36 0 -51 c0 -67 21 -419 26 -424 1 -2 26 5 55 15
l51 19 -4 77 c-5 76 -4 77 22 87 25 8 30 5 74 -54 l48 -62 51 14 c29 9 56 19
61 23 4 5 -15 38 -42 75 l-51 66 34 45 c55 72 59 167 8 218 -39 39 -111 35
-235 -12z m155 -101 c10 -39 -24 -84 -77 -104 -27 -10 -50 -16 -51 -15 -2 2
-6 30 -10 64 l-7 61 54 15 c58 17 82 11 91 -21z"/>
<path d="M3145 3593 c-13 -12 -15 -26 -11 -55 6 -36 5 -38 -14 -26 -17 11 -23
10 -40 -8 -20 -20 -21 -25 -10 -125 7 -57 13 -168 15 -246 3 -79 11 -195 20
-260 19 -151 19 -155 -8 -118 -36 49 -80 85 -118 96 -30 10 -42 8 -77 -10 -26
-13 -42 -28 -42 -39 0 -25 56 -100 81 -107 31 -10 136 -233 154 -328 20 -106
20 -256 0 -271 -20 -15 -117 -294 -112 -325 3 -22 8 -16 34 39 16 36 45 107
64 158 33 91 34 92 67 92 42 0 144 -34 201 -67 49 -28 117 -88 131 -113 6 -12
-2 -62 -24 -157 -42 -176 -50 -223 -38 -223 5 0 17 19 25 43 17 44 87 304 87
323 0 6 -11 28 -25 49 l-26 37 24 32 c108 142 134 331 82 611 -25 138 -50 282
-80 463 -18 111 -36 150 -75 164 -25 8 -30 17 -40 66 -23 112 -32 134 -71 176
-23 22 -47 53 -55 69 -8 15 -19 27 -24 27 -6 0 -20 11 -32 25 -25 29 -40 31
-63 8z"/>
<path d="M3560 3518 c0 -46 -18 -103 -36 -119 -9 -7 -34 -15 -57 -18 -50 -7
-57 -32 -12 -41 69 -15 105 -57 105 -124 0 -31 14 -55 26 -44 2 3 8 29 14 58
14 74 32 98 85 111 48 12 63 39 21 39 -12 0 -37 5 -54 11 -33 11 -45 35 -57
117 -8 52 -35 59 -35 10z m24 -114 c3 -8 2 -12 -4 -9 -6 3 -10 10 -10 16 0 14
7 11 14 -7z"/>
<path d="M4194 3508 c-15 -13 -33 -23 -39 -24 -5 0 -17 -2 -26 -2 -29 -3 -69
-54 -85 -109 -13 -43 -19 -53 -37 -53 -13 0 -32 -7 -44 -15 -36 -25 -147 -268
-160 -351 -3 -21 -19 -57 -35 -80 -37 -55 -73 -136 -94 -216 -14 -47 -18 -103
-18 -223 -1 -138 2 -171 22 -236 19 -67 21 -83 11 -121 -15 -56 5 -129 67
-247 51 -96 130 -211 145 -211 6 0 -6 30 -27 68 -109 196 -137 255 -118 248
55 -23 88 -27 135 -17 70 15 123 45 155 86 27 36 58 130 48 146 -3 5 -3 9 1 9
11 0 75 -109 140 -239 36 -72 70 -131 75 -131 28 0 -77 241 -156 355 l-46 68
34 26 c76 59 134 121 188 202 58 85 148 177 201 205 31 16 48 58 32 83 -5 9
-25 24 -44 34 -45 24 -110 16 -170 -22 -36 -22 -46 -25 -43 -12 8 38 64 365
78 454 19 117 20 148 5 180 -11 25 -54 51 -68 42 -5 -2 -11 18 -13 45 -3 27
-11 56 -18 65 -18 22 -63 19 -96 -7z m-454 -1493 c0 -5 -5 -3 -10 5 -5 8 -10
20 -10 25 0 6 5 3 10 -5 5 -8 10 -19 10 -25z"/>
<path d="M1581 3145 c-46 -9 -129 -31 -185 -51 -90 -32 -117 -37 -246 -44
-202 -11 -329 -51 -460 -144 -36 -26 -62 -35 -126 -44 -105 -14 -178 -43 -267
-102 -116 -78 -114 -72 -67 -169 125 -259 511 -718 1107 -1318 l241 -243 213
0 214 0 122 122 123 122 -21 22 -20 22 27 63 c47 113 125 262 180 345 90 136
236 254 316 254 33 0 32 -2 13 43 -17 42 -20 135 -4 190 14 50 71 113 116 128
35 11 120 8 156 -6 22 -9 19 8 -23 130 -37 109 -62 156 -99 182 -45 34 -84
107 -85 160 -1 45 13 66 70 99 17 10 7 17 -76 57 -131 63 -192 78 -350 84
-117 4 -145 9 -211 33 -180 68 -474 97 -658 65z"/>
<path d="M3680 3115 c0 -31 -41 -75 -70 -75 -11 0 -20 -7 -20 -15 0 -9 9 -15
23 -15 31 0 54 -26 62 -72 8 -45 22 -49 31 -10 13 58 17 64 50 78 36 15 45 34
16 34 -31 0 -61 29 -64 62 -4 39 -28 51 -28 13z"/>
<path d="M4297 2283 c-4 -3 -7 -18 -7 -32 0 -37 -25 -69 -61 -78 -38 -10 -39
-26 -1 -35 39 -10 51 -27 60 -79 9 -55 23 -53 38 4 15 59 20 65 55 74 39 11
41 24 4 36 -45 14 -52 23 -60 72 -6 43 -14 53 -28 38z"/>
<path d="M2926 2268 c-3 -7 -7 -32 -9 -56 -7 -55 -20 -71 -68 -78 -50 -8 -50
-28 1 -43 45 -13 70 -43 70 -82 0 -15 3 -35 6 -43 10 -26 34 1 34 38 0 50 21
79 65 91 52 15 55 32 6 40 -22 4 -45 12 -50 19 -8 10 -31 100 -31 122 0 10
-21 2 -24 -8z"/>
<path d="M4640 1944 c-30 -18 -59 -35 -65 -37 -5 -2 7 -56 27 -123 53 -172 69
-241 66 -283 l-3 -36 -32 65 c-18 36 -46 119 -64 185 -18 66 -37 126 -42 132
-7 10 -19 7 -51 -12 -22 -14 -47 -29 -54 -33 -10 -6 -6 -36 17 -138 34 -146
56 -292 47 -301 -10 -11 -37 67 -78 227 -22 85 -43 158 -46 162 -4 3 -31 -5
-61 -18 l-54 -24 7 -49 c11 -82 72 -320 110 -424 54 -154 108 -207 175 -173
39 21 59 59 67 130 l7 56 38 -35 c41 -37 82 -45 120 -25 49 27 69 135 49 276
-22 160 -100 497 -118 507 -4 2 -32 -11 -62 -29z"/>
<path d="M2672 1860 c-54 -25 -143 -109 -194 -183 -34 -49 -178 -326 -178
-341 0 -7 117 -86 128 -86 4 0 23 36 41 80 19 44 37 83 41 85 5 3 42 -18 84
-47 51 -36 73 -58 69 -68 -72 -201 -69 -188 -48 -204 11 -8 44 -27 73 -43 50
-26 54 -27 66 -10 21 27 132 372 151 467 24 120 17 232 -18 292 -44 76 -127
98 -215 58z m79 -214 c14 -31 -16 -170 -35 -159 -8 5 -84 57 -115 80 -6 4 30
54 57 80 34 31 79 31 93 -1z"/>
<path d="M4163 1665 c-29 -13 -53 -28 -53 -33 0 -5 11 -68 25 -140 13 -72 27
-162 30 -199 l5 -68 -21 44 c-12 24 -35 108 -53 185 -17 78 -35 146 -39 153
-5 9 -20 7 -60 -6 -40 -14 -52 -23 -50 -37 1 -11 9 -71 18 -134 9 -63 15 -146
13 -185 -3 -67 -4 -69 -16 -41 -7 16 -24 102 -39 190 -14 89 -28 164 -32 169
-4 4 -36 1 -72 -6 l-64 -13 3 -35 c5 -55 51 -306 74 -399 39 -162 78 -220 145
-220 50 0 73 31 94 133 l11 48 28 -44 c64 -102 171 -78 200 45 15 62 9 142
-25 338 -37 215 -50 273 -60 276 -6 2 -34 -8 -62 -21z"/>
<path d="M3095 1612 c-58 -27 -132 -115 -176 -208 -36 -75 -98 -270 -114 -355
-7 -35 -6 -37 41 -58 26 -13 58 -23 72 -24 23 -2 26 4 48 88 13 50 23 93 24
97 0 4 46 -9 103 -28 l104 -35 -18 -82 c-10 -45 -19 -89 -19 -98 0 -11 21 -21
70 -33 39 -10 74 -16 77 -12 15 14 53 298 59 431 7 151 0 199 -38 255 -37 54
-71 73 -135 77 -42 3 -69 -2 -98 -15z m110 -195 c20 -30 32 -142 16 -151 -6
-4 -49 4 -96 19 -82 25 -84 26 -75 50 31 82 54 104 107 105 23 0 37 -7 48 -23z"/>
<path d="M3534 1531 c-78 -36 -114 -119 -139 -323 -9 -73 -17 -182 -18 -243
l-2 -110 73 -3 72 -3 0 91 0 91 78 -3 77 -3 3 -87 c2 -60 7 -88 15 -89 33 -4
113 4 123 12 12 9 -16 318 -41 454 -26 143 -93 235 -169 235 -17 0 -49 -9 -72
-19z m90 -186 c18 -18 33 -72 38 -130 l3 -40 -69 -3 -68 -3 7 57 c8 70 21 105
42 122 22 16 28 15 47 -3z"/>
<path d="M4465 989 c-38 -17 -74 -34 -78 -38 -8 -8 46 -165 123 -359 33 -83
33 -83 64 -76 46 10 66 23 66 43 0 19 -76 411 -86 444 -7 22 -6 22 -89 -14z"/>
<path d="M4775 965 c-7 -52 -34 -85 -67 -85 -30 0 -52 -15 -44 -29 4 -6 17
-11 29 -11 41 0 65 -27 77 -86 12 -57 32 -69 38 -23 8 66 22 88 68 105 53 20
52 36 -4 47 -42 8 -55 28 -64 96 -5 43 -25 34 -33 -14z"/>
<path d="M4278 918 c-40 -13 -58 -25 -58 -36 0 -15 32 -194 45 -248 4 -17 -2
-23 -32 -32 -20 -6 -38 -10 -40 -8 -1 1 -10 54 -19 117 -9 63 -20 124 -25 136
-8 22 -9 22 -66 6 -32 -9 -62 -19 -66 -23 -9 -8 70 -651 81 -662 10 -10 127
11 145 25 13 11 12 26 -3 117 -10 58 -17 106 -16 106 0 1 18 9 39 18 29 11 39
12 42 3 2 -7 14 -56 26 -109 12 -54 25 -98 28 -98 20 0 131 43 140 54 13 15
-51 318 -130 619 -11 42 -13 43 -91 15z"/>
<path d="M2880 887 c0 -58 15 -143 46 -253 l25 -90 -39 -140 c-30 -104 -37
-142 -28 -151 6 -6 40 -20 76 -31 49 -15 68 -17 76 -9 6 7 21 78 33 158 l21
146 73 75 c73 75 150 191 145 217 -2 12 -82 36 -130 40 -4 1 -19 -20 -32 -46
-13 -27 -39 -68 -57 -93 l-34 -45 -6 50 c-4 28 -8 78 -8 112 l-1 61 -62 21
c-91 31 -98 29 -98 -22z"/>
<path d="M1584 848 c-4 -6 1 -17 10 -23 9 -7 31 -62 49 -126 l33 -114 121 -3
121 -3 16 56 c9 30 24 84 34 120 9 37 22 65 29 65 7 0 13 9 13 20 0 19 -7 20
-209 20 -148 0 -212 -3 -217 -12z"/>
<path d="M2716 785 c-9 -78 -23 -103 -65 -115 -20 -5 -44 -10 -53 -10 -35 0
-17 -26 25 -37 59 -16 86 -49 94 -111 8 -71 27 -67 42 9 13 66 35 95 78 105
48 10 55 14 51 27 -3 6 -23 13 -45 15 -54 4 -72 26 -86 106 -6 37 -16 66 -23
66 -6 0 -14 -24 -18 -55z"/>
<path d="M3771 820 c-72 -17 -121 -79 -140 -179 -10 -53 -23 -192 -36 -397
l-6 -91 71 -7 c39 -3 76 -4 81 -1 5 4 9 44 9 91 l0 84 49 0 c27 0 56 3 65 6
14 5 16 -5 16 -79 0 -106 6 -112 92 -100 l63 8 -3 80 c-5 132 -31 377 -47 431
-20 71 -53 115 -105 142 -47 23 -56 24 -109 12z m75 -200 c7 -19 15 -59 19
-87 l7 -53 -56 0 -56 0 0 38 c0 43 17 111 33 130 17 21 41 9 53 -28z"/>
<path d="M3323 748 c-35 -226 -76 -558 -71 -563 10 -10 287 -39 295 -31 10 10
22 129 13 139 -3 4 -39 10 -78 15 -40 4 -73 9 -73 12 -1 3 2 31 6 63 l8 59 58
-7 58 -7 6 35 c4 18 5 47 3 63 -3 27 -6 29 -58 34 -52 5 -55 7 -52 30 8 76 5
73 92 66 43 -3 81 -3 83 1 3 5 7 37 9 73 l3 65 -80 6 c-44 3 -110 9 -146 13
l-65 7 -11 -73z"/>
<path d="M4575 480 c-11 -12 -18 -35 -18 -61 0 -103 123 -111 139 -8 12 71
-74 121 -121 69z"/>
</g>
</svg>
